ffmpeg started on 2025-03-17 at 12:14:16
Report written to "D:\Convert\FFMetrics\reports\ssim_report-6.txt"
Log level: 32
Command line:
ffmpeg -hide_banner -nostdin -r 24000/1001 -i "E:\\Convert\\out\\Re_Zero_[02]_[ru_jp]_[Zendos_&_Eladiel]_[HDTV_720p]_HEVC.mkv" -r 24000/1001 -i "E:\\Convert\\files\\Re_Zero_[02]_[ru_jp]_[Zendos_&_Eladiel]_[HDTV_720p].mkv" -lavfi "[0:v]settb=AVTB,setpts=PTS-STARTPTS,format=pix_fmts=yuv420p,fps=24000/1001,scale=1280:720:flags=bicubic[main];[1:v]settb=AVTB,setpts=PTS-STARTPTS,format=pix_fmts=yuv420p,fps=24000/1001,scale=1280:720:flags=bicubic[ref];[main][ref]ssim=eof_action=endall:stats_file='D\\:/Convert/FFMetrics/logs/ssim_logfile-6.txt'" -f null -
Input #0, matroska,webm, from 'E:\Convert\out\Re_Zero_[02]_[ru_jp]_[Zendos_&_Eladiel]_[HDTV_720p]_HEVC.mkv':
  Metadata:
    COMPATIBLE_BRANDS: isomiso2avc1mp41
    MAJOR_BRAND     : isom
    MINOR_VERSION   : 512
    ENCODER         : Lavf58.45.100
  Duration: 00:24:44.82, start: 0.000000, bitrate: 1225 kb/s
  Stream #0:0: Video: hevc (Main), yuv420p(tv), 1280x720 [SAR 1:1 DAR 16:9], 25 fps, 25 tbr, 1k tbn (default)
      Metadata:
        HANDLER_NAME    : VideoHandler
        ENCODER         : Lavc58.91.100 libx265
        BPS             : 1173676
        DURATION        : 00:24:44.806000000
        NUMBER_OF_FRAMES: 35599
        NUMBER_OF_BYTES : 217835239
        _STATISTICS_WRITING_APP: mkvpropedit v66.0.0 ('Josie') 64-bit
        _STATISTICS_WRITING_DATE_UTC: 2025-02-15 15:28:01
        _STATISTICS_TAGS: BPS DURATION NUMBER_OF_FRAMES NUMBER_OF_BYTES
  Stream #0:1(rus): Audio: aac (LC), 44100 Hz, mono, fltp (default)
      Metadata:
        HANDLER_NAME    : SoundHandler
        ENCODER         : Lavc58.91.100 libfdk_aac
        BPS             : 48000
        DURATION        : 00:24:44.822000000
        NUMBER_OF_FRAMES: 63947
        NUMBER_OF_BYTES : 8909079
        _STATISTICS_WRITING_APP: mkvpropedit v66.0.0 ('Josie') 64-bit
        _STATISTICS_WRITING_DATE_UTC: 2025-02-15 15:28:01
        _STATISTICS_TAGS: BPS DURATION NUMBER_OF_FRAMES NUMBER_OF_BYTES
Input #1, matroska,webm, from 'E:\Convert\files\Re_Zero_[02]_[ru_jp]_[Zendos_&_Eladiel]_[HDTV_720p].mkv':
  Metadata:
    encoder         : libebml v1.4.2 + libmatroska v1.6.4
    creation_time   : 2024-12-27T10:02:21.000000Z
  Duration: 00:24:44.78, start: 0.000000, bitrate: 2252 kb/s
  Stream #1:0(jpn): Video: h264 (High), yuv420p(tv, bt709, progressive), 1280x720 [SAR 1:1 DAR 16:9], 23.98 fps, 23.98 tbr, 1k tbn (default)
      Metadata:
        BPS             : 2058260
        DURATION        : 00:24:44.775000000
        NUMBER_OF_FRAMES: 35599
        NUMBER_OF_BYTES : 382006643
        _STATISTICS_WRITING_APP: mkvmerge v66.0.0 ('Josie') 64-bit
        _STATISTICS_WRITING_DATE_UTC: 2024-12-27 10:02:21
        _STATISTICS_TAGS: BPS DURATION NUMBER_OF_FRAMES NUMBER_OF_BYTES
  Stream #1:1(rus): Audio: aac (LC), 48000 Hz, stereo, fltp (default) (forced)
      Metadata:
        title           : Eladiel_Zendos
        BPS             : 192093
        DURATION        : 00:24:44.778000000
        NUMBER_OF_FRAMES: 69599
        NUMBER_OF_BYTES : 35651935
        _STATISTICS_WRITING_APP: mkvmerge v66.0.0 ('Josie') 64-bit
        _STATISTICS_WRITING_DATE_UTC: 2024-12-27 10:02:21
        _STATISTICS_TAGS: BPS DURATION NUMBER_OF_FRAMES NUMBER_OF_BYTES
  Stream #1:2(rus): Subtitle: ass (ssa) (default) (forced)
      Metadata:
        title           : Надписи
        BPS             : 139
        DURATION        : 00:00:05.050000000
        NUMBER_OF_FRAMES: 1
        NUMBER_OF_BYTES : 88
        _STATISTICS_WRITING_APP: mkvmerge v66.0.0 ('Josie') 64-bit
        _STATISTICS_WRITING_DATE_UTC: 2024-12-27 10:02:21
        _STATISTICS_TAGS: BPS DURATION NUMBER_OF_FRAMES NUMBER_OF_BYTES
  Stream #1:3(rus): Subtitle: ass (ssa)
      Metadata:
        title           : Полные
        BPS             : 185
        DURATION        : 00:22:56.020000000
        NUMBER_OF_FRAMES: 372
        NUMBER_OF_BYTES : 31899
        _STATISTICS_WRITING_APP: mkvmerge v66.0.0 ('Josie') 64-bit
        _STATISTICS_WRITING_DATE_UTC: 2024-12-27 10:02:21
        _STATISTICS_TAGS: BPS DURATION NUMBER_OF_FRAMES NUMBER_OF_BYTES
Stream mapping:
  Stream #0:0 (hevc) -> settb:default
  Stream #1:0 (h264) -> settb:default
  ssim:default -> Stream #0:0 (wrapped_avframe)
  Stream #1:1 -> #0:1 (aac (native) -> pcm_s16le (native))
Output #0, null, to 'pipe:':
  Metadata:
    COMPATIBLE_BRANDS: isomiso2avc1mp41
    MAJOR_BRAND     : isom
    MINOR_VERSION   : 512
    encoder         : Lavf61.7.100
  Stream #0:0: Video: wrapped_avframe, yuv420p(tv, progressive), 1280x720 [SAR 1:1 DAR 16:9], q=2-31, 200 kb/s, 23.98 fps, 23.98 tbn
      Metadata:
        encoder         : Lavc61.19.100 wrapped_avframe
  Stream #0:1(rus): Audio: pcm_s16le, 48000 Hz, stereo, s16, 1536 kb/s (default) (forced)
      Metadata:
        title           : Eladiel_Zendos
        BPS             : 192093
        DURATION        : 00:24:44.778000000
        NUMBER_OF_FRAMES: 69599
        NUMBER_OF_BYTES : 35651935
        _STATISTICS_WRITING_APP: mkvmerge v66.0.0 ('Josie') 64-bit
        _STATISTICS_WRITING_DATE_UTC: 2024-12-27 10:02:21
        _STATISTICS_TAGS: BPS DURATION NUMBER_OF_FRAMES NUMBER_OF_BYTES
        encoder         : Lavc61.19.100 pcm_s16le
frame=  519 fps=0.0 q=-0.0 size=N/A time=00:00:21.64 bitrate=N/A speed=41.8x    frame=  945 fps=908 q=-0.0 size=N/A time=00:00:39.41 bitrate=N/A speed=37.9x    frame= 1404 fps=905 q=-0.0 size=N/A time=00:00:58.55 bitrate=N/A speed=37.8x    frame= 1880 fps=912 q=-0.0 size=N/A time=00:01:18.41 bitrate=N/A speed=  38x    frame= 2301 fps=890 q=-0.0 size=N/A time=00:01:35.97 bitrate=N/A speed=37.1x    frame= 2795 fps=903 q=-0.0 size=N/A time=00:01:56.57 bitrate=N/A speed=37.7x    frame= 3346 fps=927 q=-0.0 size=N/A time=00:02:19.55 bitrate=N/A speed=38.6x    frame= 4040 fps=977 q=-0.0 size=N/A time=00:02:48.50 bitrate=N/A speed=40.7x    frame= 4779 fps=1029 q=-0.0 size=N/A time=00:03:19.32 bitrate=N/A speed=42.9x    frame= 5386 fps=1043 q=-0.0 size=N/A time=00:03:44.64 bitrate=N/A speed=43.5x    frame= 5969 fps=1052 q=-0.0 size=N/A time=00:04:08.95 bitrate=N/A speed=43.9x    frame= 6581 fps=1062 q=-0.0 size=N/A time=00:04:34.48 bitrate=N/A speed=44.3x    frame= 7052 fps=1052 q=-0.0 size=N/A time=00:04:54.12 bitrate=N/A speed=43.9x    frame= 7415 fps=1026 q=-0.0 size=N/A time=00:05:09.26 bitrate=N/A speed=42.8x    frame= 7858 fps=1014 q=-0.0 size=N/A time=00:05:27.74 bitrate=N/A speed=42.3x    frame= 8341 fps=1009 q=-0.0 size=N/A time=00:05:47.88 bitrate=N/A speed=42.1x    frame= 8847 fps=1006 q=-0.0 size=N/A time=00:06:08.99 bitrate=N/A speed=  42x    frame= 9237 fps=993 q=-0.0 size=N/A time=00:06:25.25 bitrate=N/A speed=41.4x    frame= 9685 fps=987 q=-0.0 size=N/A time=00:06:43.94 bitrate=N/A speed=41.2x    frame=10288 fps=996 q=-0.0 size=N/A time=00:07:09.09 bitrate=N/A speed=41.5x    frame=10630 fps=980 q=-0.0 size=N/A time=00:07:23.35 bitrate=N/A speed=40.9x    frame=11360 fps=1000 q=-0.0 size=N/A time=00:07:53.80 bitrate=N/A speed=41.7x    frame=12009 fps=1010 q=-0.0 size=N/A time=00:08:20.87 bitrate=N/A speed=42.1x    frame=12317 fps=994 q=-0.0 size=N/A time=00:08:33.72 bitrate=N/A speed=41.5x    frame=12894 fps=999 q=-0.0 size=N/A time=00:08:57.78 bitrate=N/A speed=41.6x    frame=13462 fps=1002 q=-0.0 size=N/A time=00:09:21.47 bitrate=N/A speed=41.8x    frame=13922 fps=999 q=-0.0 size=N/A time=00:09:40.66 bitrate=N/A speed=41.6x    frame=14411 fps=996 q=-0.0 size=N/A time=00:10:01.05 bitrate=N/A speed=41.6x    frame=14854 fps=992 q=-0.0 size=N/A time=00:10:19.53 bitrate=N/A speed=41.4x    frame=15392 fps=993 q=-0.0 size=N/A time=00:10:41.97 bitrate=N/A speed=41.4x    frame=15899 fps=993 q=-0.0 size=N/A time=00:11:03.12 bitrate=N/A speed=41.4x    frame=16470 fps=997 q=-0.0 size=N/A time=00:11:26.93 bitrate=N/A speed=41.6x    frame=16910 fps=992 q=-0.0 size=N/A time=00:11:45.28 bitrate=N/A speed=41.4x    frame=17429 fps=993 q=-0.0 size=N/A time=00:12:06.93 bitrate=N/A speed=41.4x    frame=17935 fps=993 q=-0.0 size=N/A time=00:12:28.03 bitrate=N/A speed=41.4x    frame=18431 fps=992 q=-0.0 size=N/A time=00:12:48.72 bitrate=N/A speed=41.4x    frame=18890 fps=989 q=-0.0 size=N/A time=00:13:07.87 bitrate=N/A speed=41.3x    frame=19245 fps=981 q=-0.0 size=N/A time=00:13:22.67 bitrate=N/A speed=40.9x    frame=19646 fps=976 q=-0.0 size=N/A time=00:13:39.40 bitrate=N/A speed=40.7x    frame=20147 fps=976 q=-0.0 size=N/A time=00:14:00.29 bitrate=N/A speed=40.7x    frame=20619 fps=974 q=-0.0 size=N/A time=00:14:19.98 bitrate=N/A speed=40.6x    frame=21174 fps=976 q=-0.0 size=N/A time=00:14:43.13 bitrate=N/A speed=40.7x    frame=21574 fps=972 q=-0.0 size=N/A time=00:14:59.81 bitrate=N/A speed=40.5x    frame=22034 fps=970 q=-0.0 size=N/A time=00:15:19.00 bitrate=N/A speed=40.5x    frame=22463 fps=967 q=-0.0 size=N/A time=00:15:36.89 bitrate=N/A speed=40.3x    frame=22844 fps=962 q=-0.0 size=N/A time=00:15:52.78 bitrate=N/A speed=40.1x    frame=23317 fps=962 q=-0.0 size=N/A time=00:16:12.51 bitrate=N/A speed=40.1x    frame=24002 fps=969 q=-0.0 size=N/A time=00:16:41.08 bitrate=N/A speed=40.4x    frame=24657 fps=975 q=-0.0 size=N/A time=00:17:08.40 bitrate=N/A speed=40.7x    frame=25108 fps=973 q=-0.0 size=N/A time=00:17:27.21 bitrate=N/A speed=40.6x    frame=25685 fps=976 q=-0.0 size=N/A time=00:17:51.27 bitrate=N/A speed=40.7x    frame=26193 fps=976 q=-0.0 size=N/A time=00:18:12.46 bitrate=N/A speed=40.7x    frame=26469 fps=968 q=-0.0 size=N/A time=00:18:23.97 bitrate=N/A speed=40.4x    frame=26919 fps=966 q=-0.0 size=N/A time=00:18:42.74 bitrate=N/A speed=40.3x    frame=27532 fps=970 q=-0.0 size=N/A time=00:19:08.31 bitrate=N/A speed=40.5x    frame=28023 fps=970 q=-0.0 size=N/A time=00:19:28.79 bitrate=N/A speed=40.5x    frame=28430 fps=966 q=-0.0 size=N/A time=00:19:45.76 bitrate=N/A speed=40.3x    frame=29017 fps=970 q=-0.0 size=N/A time=00:20:10.25 bitrate=N/A speed=40.4x    frame=29463 fps=968 q=-0.0 size=N/A time=00:20:28.85 bitrate=N/A speed=40.4x    frame=30036 fps=970 q=-0.0 size=N/A time=00:20:52.75 bitrate=N/A speed=40.5x    frame=30579 fps=972 q=-0.0 size=N/A time=00:21:15.39 bitrate=N/A speed=40.5x    frame=31036 fps=970 q=-0.0 size=N/A time=00:21:34.45 bitrate=N/A speed=40.5x    frame=31479 fps=969 q=-0.0 size=N/A time=00:21:52.93 bitrate=N/A speed=40.4x    frame=31963 fps=968 q=-0.0 size=N/A time=00:22:13.12 bitrate=N/A speed=40.4x    frame=32420 fps=967 q=-0.0 size=N/A time=00:22:32.18 bitrate=N/A speed=40.3x    frame=32899 fps=966 q=-0.0 size=N/A time=00:22:52.16 bitrate=N/A speed=40.3x    frame=33337 fps=964 q=-0.0 size=N/A time=00:23:10.43 bitrate=N/A speed=40.2x    frame=33921 fps=967 q=-0.0 size=N/A time=00:23:34.78 bitrate=N/A speed=40.3x    frame=34324 fps=964 q=-0.0 size=N/A time=00:23:51.59 bitrate=N/A speed=40.2x    frame=34640 fps=959 q=-0.0 size=N/A time=00:24:04.77 bitrate=N/A speed=  40x    frame=34937 fps=954 q=-0.0 size=N/A time=00:24:17.16 bitrate=N/A speed=39.8x    frame=35264 fps=949 q=-0.0 size=N/A time=00:24:30.80 bitrate=N/A speed=39.6x    [Parsed_ssim_10 @ 000001f7eaebe980] SSIM Y:0.993652 (21.973383) U:0.995429 (23.399640) V:0.995818 (23.785791) All:0.994309 (22.447979)
[out#0/null @ 000001f7e58abbc0] video:15296KiB audio:278396KiB subtitle:0KiB other streams:0KiB global headers:0KiB muxing overhead: unknown
frame=35599 fps=953 q=-0.0 Lsize=N/A time=00:24:44.77 bitrate=N/A speed=39.7x    
